<?xml version="1.0" encoding="utf-8"?>
<!-- Generator: Adobe Illustrator 26.3.1, SVG Export Plug-In . SVG Version: 6.00 Build 0)  -->
<svg version="1.1" xmlns="http://www.w3.org/2000/svg" xmlns:xlink="http://www.w3.org/1999/xlink" x="0px" y="0px"
	 viewBox="0 0 500 500" style="enable-background:new 0 0 500 500;" xml:space="preserve">
<style type="text/css">
	.st0{display:none;}
	.st1{fill:url(#SVGID_1_);}
	.st2{fill:url(#SVGID_00000072246709277147991440000011362442993441677226_);}
	.st3{fill:url(#SVGID_00000078742619908595785370000001350171428842499474_);}
	.st4{fill:url(#SVGID_00000089569653555029955460000005834598257990092712_);}
	.st5{fill:url(#SVGID_00000132782553586416308360000006484615675867153330_);}
	.st6{fill:url(#SVGID_00000028306958522720646040000007487969152134432432_);}
	.st7{fill:url(#SVGID_00000116924473171878356730000011465782963523802286_);}
	.st8{fill:url(#SVGID_00000037662790101822417280000010673895993517846694_);}
	.st9{fill:url(#SVGID_00000144297036208614206430000004936629926755063486_);}
	.st10{fill:url(#SVGID_00000183238001634280253260000002247450807927493028_);}
	.st11{fill:url(#SVGID_00000088098981337095136010000010501975998255820991_);}
	.st12{fill:url(#SVGID_00000160881044585893735980000002040903387323563189_);}
	.st13{fill:url(#SVGID_00000136398257352801315730000009664839090655127703_);}
	.st14{fill:url(#SVGID_00000158737542008815281710000004118082535520560794_);}
	.st15{fill:url(#SVGID_00000101097951944640072490000002852975215462795944_);}
	.st16{opacity:0.61;fill:url(#SVGID_00000047749495098885302610000016803419441857377408_);}
	.st17{opacity:0.61;fill:url(#SVGID_00000070822881441203613270000012565399553850438297_);}
	.st18{opacity:0.61;fill:url(#SVGID_00000170959435285770581340000000120850084043113625_);}
	.st19{opacity:0.61;fill:url(#SVGID_00000078036162668075072490000007873681721009389187_);}
	.st20{opacity:0.61;fill:url(#SVGID_00000156564077339986786110000000276574425226427559_);}
	.st21{opacity:0.61;fill:url(#SVGID_00000061456838664104616360000013181849931995498648_);}
	.st22{opacity:0.61;fill:url(#SVGID_00000040568041467513517270000008415482023394825635_);}
	.st23{display:none;fill:#006FE2;}
	.st24{font-family:'Montserrat-Bold';}
	.st25{font-size:50.1442px;}
</style>
<g id="BACKGROUND" class="st0">
</g>
<g id="OBJECTS">
	<g>
		<g>
			<linearGradient id="SVGID_1_" gradientUnits="userSpaceOnUse" x1="136.2155" y1="240.9843" x2="363.7845" y2="240.9843">
				<stop  offset="0" style="stop-color:#E57129"/>
				<stop  offset="0.5443" style="stop-color:#FFB539"/>
				<stop  offset="1" style="stop-color:#E57129"/>
			</linearGradient>
			<path class="st1" d="M363.8,151.2v127.7c0,2.1-1.1,4.1-3,5.2l-70,40.1l-9.3,5.3l-8.4,4.8c-2.3,1.4-5,2.1-7.7,2.1h-30.8
				c-2.7,0-5.4-0.7-7.7-2.1l-8.4-4.8l-9.3-5.3l-70-40.1c-1.8-1.1-3-3-3-5.2V151.2c0-1.1,0.6-2.2,1.6-2.8l4.3-2.5c0,0,0.1,0,0.1-0.1
				c0.2-0.1,1.5-0.7,3.5,0.4c1.3,0.7-1.2,2.5-2.1,3.1v127.2c0,1.5,0.8,2.9,2.1,3.7l75.8,43.9l5.4,3.1c2.2,1.3,4.8,2,7.4,2h31.2
				c2.6,0,5.2-0.7,7.4-2l5.4-3.1l75.8-43.9c1.3-0.8,2.1-2.1,2.1-3.7V149.3c-0.9-0.6-3.4-2.3-2.1-3.1c2-1.1,3.4-0.5,3.5-0.4
				c0,0,0.1,0,0.1,0.1l4.3,2.5C363.2,148.9,363.8,150,363.8,151.2z"/>
			
				<linearGradient id="SVGID_00000176730492085174947430000008925021872286827674_" gradientUnits="userSpaceOnUse" x1="250.0486" y1="298.6958" x2="250.0486" y2="74.9212">
				<stop  offset="0.3054" style="stop-color:#006FE2"/>
				<stop  offset="0.7216" style="stop-color:#1FAAF0"/>
			</linearGradient>
			<path style="fill:url(#SVGID_00000176730492085174947430000008925021872286827674_);" d="M253.8,101.6v227.7h-7.6V101.6
				c0-2.1,1.7-3.8,3.8-3.8c1,0,2,0.4,2.7,1.1C253.4,99.6,253.8,100.5,253.8,101.6z"/>
			<g>
				
					<linearGradient id="SVGID_00000021111737780838917180000010709800776342717339_" gradientUnits="userSpaceOnUse" x1="218.7497" y1="329.2663" x2="218.7497" y2="120.1276">
					<stop  offset="0.3054" style="stop-color:#006FE2"/>
					<stop  offset="0.7216" style="stop-color:#1FAAF0"/>
				</linearGradient>
				<path style="fill:url(#SVGID_00000021111737780838917180000010709800776342717339_);" d="M240,199v130.3l-41.6-79.5
					c-0.3-0.5-0.5-1-0.6-1.6c-0.2-0.6-0.2-1.2-0.2-1.9V122.2c0-2.1,2.9-2.8,3.8-0.9l36.8,70.2C239.4,193.8,240,196.4,240,199z"/>
				
					<linearGradient id="SVGID_00000031916160643057716560000017718530297852455844_" gradientUnits="userSpaceOnUse" x1="201.741" y1="329.2663" x2="201.741" y2="135.7991">
					<stop  offset="0.3054" style="stop-color:#006FE2"/>
					<stop  offset="0.7216" style="stop-color:#1FAAF0"/>
				</linearGradient>
				<path style="fill:url(#SVGID_00000031916160643057716560000017718530297852455844_);" d="M234.7,329.3l-64.4-62.1
					c-0.5-0.5-0.9-1.1-1.1-1.7c-0.1-0.2-0.2-0.5-0.2-0.8c-0.1-0.3-0.1-0.7-0.1-1V137.9c0-1.9,2.2-2.8,3.6-1.6l17.5,16.2
					c1.5,1.4,2.3,3.3,2.3,5.3v89.7c0,0.6,0.1,1.3,0.2,1.9c0.1,0.5,0.3,1,0.6,1.5c0,0,0,0.1,0.1,0.1L234.7,329.3z"/>
				
					<linearGradient id="SVGID_00000181054676055099171370000017642399783741274536_" gradientUnits="userSpaceOnUse" x1="185.3255" y1="303.3459" x2="185.3255" y2="128.1721">
					<stop  offset="0.3054" style="stop-color:#006FE2"/>
					<stop  offset="0.7216" style="stop-color:#1FAAF0"/>
				</linearGradient>
				<path style="fill:url(#SVGID_00000181054676055099171370000017642399783741274536_);" d="M227,327.3L143.6,279V147.5
					c0-1.1,1.2-1.8,2.2-1.2l15.5,9.1c1.4,0.8,2.2,2.3,2.2,3.9v107.2c0,0.4,0,0.8,0.2,1.2c0.1,0.5,0.3,0.9,0.6,1.4
					c0.2,0.4,0.5,0.7,0.8,1L227,327.3z"/>
			</g>
			<g>
				
					<linearGradient id="SVGID_00000101804741665591066730000011579701758896364990_" gradientUnits="userSpaceOnUse" x1="281.0139" y1="329.2663" x2="281.0139" y2="120.1276">
					<stop  offset="0.3054" style="stop-color:#006FE2"/>
					<stop  offset="0.7216" style="stop-color:#1FAAF0"/>
				</linearGradient>
				<path style="fill:url(#SVGID_00000101804741665591066730000011579701758896364990_);" d="M302.2,122.2v124.2
					c0,1.2-0.3,2.4-0.8,3.4l-41.6,79.5V199c0-2.6,0.6-5.2,1.9-7.6l36.8-70.2C299.4,119.3,302.2,120,302.2,122.2z"/>
				
					<linearGradient id="SVGID_00000028324471866402368680000009280506826023944837_" gradientUnits="userSpaceOnUse" x1="298.0225" y1="329.2663" x2="298.0225" y2="135.7991">
					<stop  offset="0.3054" style="stop-color:#006FE2"/>
					<stop  offset="0.7216" style="stop-color:#1FAAF0"/>
				</linearGradient>
				<path style="fill:url(#SVGID_00000028324471866402368680000009280506826023944837_);" d="M331,137.9v125.7
					c0,1.3-0.5,2.6-1.5,3.5l-64.4,62.1l41.6-78.2c0.6-1.1,0.9-2.3,0.9-3.5v-89.7c0-2,0.8-3.9,2.3-5.3l17.5-16.2
					C328.7,135.1,331,136.1,331,137.9z"/>
				
					<linearGradient id="SVGID_00000177449956361472554550000006052154346971289522_" gradientUnits="userSpaceOnUse" x1="313.9624" y1="303.8713" x2="313.9624" y2="128.1123">
					<stop  offset="0.3054" style="stop-color:#006FE2"/>
					<stop  offset="0.7216" style="stop-color:#1FAAF0"/>
				</linearGradient>
				<path style="fill:url(#SVGID_00000177449956361472554550000006052154346971289522_);" d="M356.1,147.5V279l-84.3,48.9l62.9-57.9
					c1-0.9,1.6-2.2,1.6-3.6V159.2c0-1.6,0.9-3.1,2.2-3.9l15.5-9.1C354.9,145.7,356.1,146.4,356.1,147.5z"/>
			</g>
			
				<linearGradient id="SVGID_00000090255494177856936450000000479480414325546650_" gradientUnits="userSpaceOnUse" x1="153.5694" y1="190.2554" x2="153.5694" y2="151.7654">
				<stop  offset="0" style="stop-color:#1FAAF0"/>
				<stop  offset="1" style="stop-color:#50E2CF"/>
			</linearGradient>
			<path style="fill:url(#SVGID_00000090255494177856936450000000479480414325546650_);" d="M163.5,159.2V197l-19.9-11v-38.4
				c0-1.1,1.2-1.8,2.2-1.2l15.5,9.1C162.7,156.1,163.5,157.6,163.5,159.2z"/>
			
				<linearGradient id="SVGID_00000043447575511155453560000009203942003052693945_" gradientUnits="userSpaceOnUse" x1="180.5064" y1="202.7221" x2="180.5064" y2="145.5867">
				<stop  offset="0" style="stop-color:#1FAAF0"/>
				<stop  offset="1" style="stop-color:#50E2CF"/>
			</linearGradient>
			<path style="fill:url(#SVGID_00000043447575511155453560000009203942003052693945_);" d="M189.9,152.6c1.5,1.4,2.3,3.3,2.3,5.3
				v55l-23.4-13v-62c0-1.9,2.2-2.8,3.6-1.6L189.9,152.6z"/>
			
				<linearGradient id="SVGID_00000018953741428450081060000010051274003096802697_" gradientUnits="userSpaceOnUse" x1="218.7497" y1="223.6566" x2="218.7497" y2="137.3374">
				<stop  offset="0" style="stop-color:#1FAAF0"/>
				<stop  offset="1" style="stop-color:#50E2CF"/>
			</linearGradient>
			<path style="fill:url(#SVGID_00000018953741428450081060000010051274003096802697_);" d="M240,199v40.4l-42.5-23.6v-93.7
				c0-2.1,2.9-2.8,3.8-0.9l36.8,70.2C239.4,193.8,240,196.4,240,199z"/>
			
				<linearGradient id="SVGID_00000025435960262928943760000003033789575934282173_" gradientUnits="userSpaceOnUse" x1="250.0486" y1="222.0689" x2="250.0486" y2="113.7964">
				<stop  offset="0" style="stop-color:#1FAAF0"/>
				<stop  offset="1" style="stop-color:#50E2CF"/>
			</linearGradient>
			<path style="fill:url(#SVGID_00000025435960262928943760000003033789575934282173_);" d="M253.8,101.6V241h-7.6V101.6
				c0-2.1,1.7-3.8,3.8-3.8c1,0,2,0.4,2.7,1.1C253.4,99.6,253.8,100.5,253.8,101.6z"/>
			
				<linearGradient id="SVGID_00000173137397496196456030000004091087907293760178_" gradientUnits="userSpaceOnUse" x1="281.0139" y1="222.7614" x2="281.0139" y2="155.6506">
				<stop  offset="0" style="stop-color:#1FAAF0"/>
				<stop  offset="1" style="stop-color:#50E2CF"/>
			</linearGradient>
			<path style="fill:url(#SVGID_00000173137397496196456030000004091087907293760178_);" d="M302.2,122.2v93.7l-42.5,23.6V199
				c0-2.6,0.6-5.2,1.9-7.6l36.8-70.2C299.4,119.3,302.2,120,302.2,122.2z"/>
			
				<linearGradient id="SVGID_00000127725546802461037430000006161118449910887352_" gradientUnits="userSpaceOnUse" x1="320.3495" y1="200.4515" x2="317.9943" y2="146.4205">
				<stop  offset="0" style="stop-color:#1FAAF0"/>
				<stop  offset="1" style="stop-color:#50E2CF"/>
			</linearGradient>
			<path style="fill:url(#SVGID_00000127725546802461037430000006161118449910887352_);" d="M331,137.9v62l-23.4,13v-55
				c0-2,0.8-3.9,2.3-5.3l17.5-16.2C328.7,135.1,331,136.1,331,137.9z"/>
			
				<linearGradient id="SVGID_00000027579536672989566290000006686447951205584052_" gradientUnits="userSpaceOnUse" x1="346.1942" y1="187.3849" x2="346.1942" y2="157.3221">
				<stop  offset="0" style="stop-color:#1FAAF0"/>
				<stop  offset="1" style="stop-color:#50E2CF"/>
			</linearGradient>
			<path style="fill:url(#SVGID_00000027579536672989566290000006686447951205584052_);" d="M356.1,147.5V186l-19.9,11v-37.8
				c0-1.6,0.9-3.1,2.2-3.9l15.5-9.1C354.9,145.7,356.1,146.4,356.1,147.5z"/>
			<g>
				
					<linearGradient id="SVGID_00000148658875120665606360000008428591462561588923_" gradientUnits="userSpaceOnUse" x1="185.3255" y1="316.0362" x2="185.3255" y2="280.8098">
					<stop  offset="0" style="stop-color:#952196"/>
					<stop  offset="1" style="stop-color:#1656D6"/>
				</linearGradient>
				<path style="opacity:0.61;fill:url(#SVGID_00000148658875120665606360000008428591462561588923_);" d="M165.1,270l61.9,57.3
					L143.6,279l20-11.4c0.1,0.5,0.3,0.9,0.6,1.4C164.5,269.4,164.7,269.7,165.1,270z"/>
				
					<linearGradient id="SVGID_00000159445836032724207370000014476330383188625562_" gradientUnits="userSpaceOnUse" x1="201.7966" y1="314.5023" x2="201.7966" y2="268.2343">
					<stop  offset="0" style="stop-color:#952196"/>
					<stop  offset="1" style="stop-color:#1656D6"/>
				</linearGradient>
				<path style="opacity:0.61;fill:url(#SVGID_00000159445836032724207370000014476330383188625562_);" d="M193.1,251l41.6,78.2
					l-64.4-62.1c-0.5-0.5-0.9-1.1-1.1-1.7c-0.1-0.2-0.2-0.5-0.2-0.8l24.1-13.7C193,251,193,251,193.1,251z"/>
				
					<linearGradient id="SVGID_00000096060794854444371860000007285824967090654878_" gradientUnits="userSpaceOnUse" x1="218.8733" y1="313.9923" x2="218.8733" y2="266.126">
					<stop  offset="0" style="stop-color:#952196"/>
					<stop  offset="1" style="stop-color:#1656D6"/>
				</linearGradient>
				<path style="opacity:0.61;fill:url(#SVGID_00000096060794854444371860000007285824967090654878_);" d="M240,283.1v46.2
					l-41.6-79.5c-0.3-0.5-0.5-1-0.6-1.6l41.8,34.9H240z"/>
			</g>
			<g>
				
					<linearGradient id="SVGID_00000056418223229132199310000013536760603146475186_" gradientUnits="userSpaceOnUse" x1="107.4746" y1="316.0362" x2="107.4746" y2="280.8098" gradientTransform="matrix(-1 0 0 1 422.77 0)">
					<stop  offset="0" style="stop-color:#952196"/>
					<stop  offset="1" style="stop-color:#1656D6"/>
				</linearGradient>
				<path style="opacity:0.61;fill:url(#SVGID_00000056418223229132199310000013536760603146475186_);" d="M335.6,270l-61.9,57.3
					L357,279l-20-11.4c-0.1,0.5-0.3,0.9-0.6,1.4C336.2,269.4,335.9,269.7,335.6,270z"/>
				
					<linearGradient id="SVGID_00000118388241158060718670000003401793888502151613_" gradientUnits="userSpaceOnUse" x1="123.9458" y1="314.5023" x2="123.9458" y2="268.2343" gradientTransform="matrix(-1 0 0 1 422.77 0)">
					<stop  offset="0" style="stop-color:#952196"/>
					<stop  offset="1" style="stop-color:#1656D6"/>
				</linearGradient>
				<path style="opacity:0.61;fill:url(#SVGID_00000118388241158060718670000003401793888502151613_);" d="M307.6,251l-41.6,78.2
					l64.4-62.1c0.5-0.5,0.9-1.1,1.1-1.7c0.1-0.2,0.2-0.5,0.2-0.8l-24.1-13.7C307.6,251,307.6,251,307.6,251z"/>
				
					<linearGradient id="SVGID_00000095312327816244572230000008804613304524880016_" gradientUnits="userSpaceOnUse" x1="141.0223" y1="313.9923" x2="141.0223" y2="266.126" gradientTransform="matrix(-1 0 0 1 422.77 0)">
					<stop  offset="0" style="stop-color:#952196"/>
					<stop  offset="1" style="stop-color:#1656D6"/>
				</linearGradient>
				<path style="opacity:0.61;fill:url(#SVGID_00000095312327816244572230000008804613304524880016_);" d="M260.6,283.1v46.2
					l41.6-79.5c0.3-0.5,0.5-1,0.6-1.6l-41.8,34.9H260.6z"/>
			</g>
			
				<linearGradient id="SVGID_00000001663351262975358730000016865543976493446845_" gradientUnits="userSpaceOnUse" x1="250.0486" y1="320.5639" x2="250.0486" y2="293.2921">
				<stop  offset="0" style="stop-color:#952196"/>
				<stop  offset="1" style="stop-color:#1656D6"/>
			</linearGradient>
			
				<rect x="246.3" y="283.1" style="opacity:0.61;fill:url(#SVGID_00000001663351262975358730000016865543976493446845_);" width="7.6" height="46.2"/>
		</g>
		<text transform="matrix(1 0 0 1 187.6211 394.1475)" class="st23 st24 st25">BOOK</text>
	</g>
</g>
</svg>
