<?xml version="1.0" encoding="utf-8"?>
<!-- Generator: Adobe Illustrator 27.5.0, SVG Export Plug-In . SVG Version: 6.00 Build 0)  -->
<svg version="1.1" id="Layer_1" xmlns="http://www.w3.org/2000/svg" xmlns:xlink="http://www.w3.org/1999/xlink" x="0px" y="0px"
	 viewBox="0 0 2646.46 2000" style="enable-background:new 0 0 2646.46 2000;" xml:space="preserve">
<g>
	
		<rect x="0.001" y="0" transform="matrix(-1 -1.224647e-16 1.224647e-16 -1 2646.4619 1999.9996)" style="fill:none;" width="2646.46" height="2000"/>
	<g>
		<path style="opacity:0.2;fill:#B3EBF5;" d="M2402.888,1837.022H291.004c-26.229-50.271-38.648-108.046-29.972-167.715
			c6.36-43.738,94.089-86.506,73.414-166.165c-39.182-150.958-4.383-254.087,114.643-416.241
			c135.089-184.039,222.364-194.23,248.212-319.867c8.892-43.22,0.479-85.266-1.235-127.775
			c-3.407-84.563,24.712-180.195,97.257-241.72c79.495-67.418,189.312-77.566,288.017-78.977
			c60.302-0.861,121.154,0.132,176.669,15.626c117.509,32.794,196.639,125.445,296.911,186.978
			c69.035,42.363,149.184,70.199,234.327,81.383c48.276,6.341,99.206,7.668,141.585,27.016
			c72.586,33.137,104.904,111.557,124.084,187.449c19.178,75.892,31.383,157.442,80.727,216.553
			c47.48,56.879,123.414,85.514,180.314,133.883c88.093,74.885,125.15,193.567,127.293,313.365
			C2445.369,1599.276,2410.678,1718.59,2402.888,1837.022z"/>
		<path style="opacity:0.2;fill:#93E3F1;" d="M355.653,993.085c53.424-20.221,56.307,70.977,56.132,95.55
			c19.762,7.359,37.349,15.834,52.798,24.708c-10.833-27.868-35.709-41.119-37.395-60.662c-1.89-21.913,9.913-45.836,38.62-18.598
			c22.747,21.581,10.734,65.479,4.762,82.791c26.467,15.927,46.302,32.733,60,46.253c-8.048-33.948-35.18-52.655-34.796-75.055
			c0.419-24.507,16.113-49.203,44.554-14.824c23.51,28.417,2.687,78.065-5.245,94.44c12.244,12.661,18.48,21.572,19.14,22.532
			c12.671,17.931,23.959,35.887,34.026,53.725c-6.435-30.063-26.52-50.91-23.672-71.148c3.418-24.29,21.929-46.324,45.771-7.61
			c18.862,30.628-4.727,74.097-15.407,90.927c20.206,37.751,34.99,74.793,45.778,109.732c3.307-28.634-10.482-71.755,0.717-96.841
			c7.348-16.457,18.789-18.55,27.154-17.376c7.147,1.003,13.293,5.647,16.986,12.627c20.879,39.446-27.604,92.817-42.857,108.163
			c12.811,43.164,19.535,82.897,22.832,116.471c1.825-14.794,4.488-37.137,5.41-48.802c1.453-18.392,11.878-42.548,25.932-50.417
			c0.587-0.327,1.166-0.626,1.739-0.896c10.978-5.18,23.278,0.181,29.311,11.537c23.604,44.423-45.989,91.646-61.271,101.313
			c0.019,0.232,0.04,0.473,0.058,0.704c6.429,84.788-6.442,141.191-6.993,143.55l-7.589-2.097
			c0.128-0.547,12.345-54.254,7.232-133.614c-70.644-23.118-82.504-74.407-69.684-90.153c13.248-16.27,42.468-17.482,49.428,19.239
			c4.036,21.3,12.64,42.479,19.157,56.524c-2.999-33.821-9.544-74.514-22.626-118.949c-98.617,6.783-95.145-63.058-73.177-75.261
			c22.234-12.354,36.186,0.555,47.118,29.401c7.261,19.161,17.948,32.94,24.325,40.06c-10.469-34.307-24.875-70.734-44.569-107.896
			c-13.98,12.576-51.713,41.965-79.558,21.368c-34.798-25.74-16.184-47.661,4.967-52.46c19.446-4.412,40.58,22.979,71.706,25.709
			c-11.124-20.491-23.845-41.18-38.444-61.837c-0.231-0.341-12.742-18.226-38.52-40.192c-12.673,14.574-46.784,48.659-76.631,32.396
			c-37.485-20.425-21.385-44.783-0.865-52.582c18.309-6.957,41.516,15.469,71.462,15.161
			c-22.271-18.038-53.167-38.031-93.151-53.099c-13.248,15.019-46.619,47.464-75.871,31.524
			c-37.485-20.426-21.385-44.784-0.865-52.582c18.567-7.057,42.166,16.123,72.728,15.15l0.267-0.906
			c-9.36-7.022-29.265-21.847-39.122-28.371c-13.154-8.707-26.188-28.547-25.116-45.53
			C343.408,999.902,355.653,993.085,355.653,993.085z"/>
		<path style="fill:#C4F3FB;" d="M379.104,1413.722l-119.132,2.806c-44.45-73.171-77.493-137.026-77.493-137.026
			c133.157-36.592,247.156-28.601,343.208,3.79l57.371,124.357l7.086-97.892c239.563,116.639,347.256,380.22,347.256,380.22
			s-415.896-26.832-505.377-63.987c-34.549-14.346-79.622-69.272-121.94-131.3C340.557,1463.159,379.104,1413.722,379.104,1413.722z
			"/>
		<path style="fill:#9FEEF7;" d="M182.48,1279.501c0,0,540.925,201.508,754.921,410.476c0,0-415.896-26.832-505.377-63.987
			c-34.549-14.346-79.622-69.272-121.94-131.3c30.474-31.53,69.021-80.968,69.021-80.968l-119.132,2.806
			C215.522,1343.356,182.48,1279.501,182.48,1279.501z"/>
		<path style="fill:#CCF6FE;" d="M159.914,1420.211c21.234-38.529,68.466,13.518,80.634,28.016
			c15.267-5.548,29.812-9.359,43.303-11.867c-20.269-10.935-41.476-6.288-52.222-16.908c-12.052-11.907-17.076-31.829,13.362-30.187
			c24.117,1.3,38.993,33.044,44.135,46.177c23.476-3.872,43.501-3.917,58.286-2.826c-21.673-15.893-46.927-13.319-57.887-26.647
			c-11.993-14.583-15.121-36.901,18.727-30.938c27.978,4.93,40.559,44.441,44.083,58.006c13.503,1.312,21.612,3.426,22.478,3.659
			c16.386,4.189,31.973,9.085,46.784,14.521c-18.785-14.419-40.977-16.618-49.412-29.909c-10.125-15.952-10.27-38.115,23.044-27.313
			c26.357,8.546,34.229,45.816,36.37,61.018c30.701,12.053,57.87,26.396,81.643,41.501c-12.358-18.443-41.979-36.849-47.938-57.152
			c-3.908-13.319,1.757-20.259,7.248-23.746c4.691-2.979,10.617-3.324,16.267-1.075c31.944,12.712,30.161,68.217,28.879,84.831
			c29.067,18.92,52.852,38.865,71.553,56.909c-6.317-9.588-15.914-24.021-21.198-31.321c-8.332-11.512-14.28-30.884-9.967-42.516
			c0.179-0.484,0.372-0.949,0.572-1.394c3.851-8.517,13.741-11.516,22.95-7.867c36.027,14.271,18.794,76.708,14.659,90.007
			c0.128,0.128,0.261,0.257,0.387,0.384c46.11,46.517,66.728,86.023,67.583,87.681l-5.498,2.559
			c-0.199-0.386-19.853-37.981-62.482-81.973c-52.976,21.71-85.543-2.449-85.887-18.085c-0.355-16.154,16.177-31.453,38.597-13.391
			c13.002,10.474,28.624,18.601,39.46,23.584c-18.647-18.338-42.808-38.936-72.668-58.465c-54.449,53.211-87.29,10.518-80.5-7.607
			c6.872-18.344,21.499-17.739,42.316-6.279c13.826,7.613,26.975,10.359,34.27,11.352c-23.271-14.894-49.911-29.066-80.018-41.028
			c-1.919,14.355-9.373,50.428-35.987,52.25c-33.263,2.276-33.292-19.872-23.285-33.246c9.202-12.296,35.273-6.782,54.893-20.72
			c-16.756-6.466-34.549-12.248-53.427-17.074c-0.306-0.084-16.575-4.328-42.661-4.342c-0.154,14.875-3.139,51.895-28.765,57.256
			c-32.183,6.735-34.905-15.589-26.766-30.406c7.263-13.222,32.073-11.654,49.482-26.785c-22.069,0.54-50.172,4.239-81.146,15.363
			c-0.269,15.423-3.638,51.11-28.754,56.366c-32.184,6.733-34.906-15.589-26.766-30.406c7.365-13.408,32.781-11.595,50.219-27.423
			l-0.295-0.665c-8.996,0.556-28.072,1.798-37.111,2.893c-12.063,1.46-29.615-3.67-37.466-14.164
			C156.137,1430.323,159.914,1420.211,159.914,1420.211z"/>
		<path style="fill:#C4F3FB;" d="M214.355,1636.291c69.761-46.567,141-72.9,210.498-85.116
			c21.543,24.61,47.938,53.508,47.938,53.508l0.164-59.805c267.625-23.392,497.298,146.974,497.298,146.974
			c-151.218,104.345-282.567,136.856-391.445,132.636c-7.301-20.618-17.702-51.395-17.702-51.395l-17.17,48.757
			c-52.358-5.957-98.94-20.267-139.408-38.445c9.116-25.302,18.624-54.183,18.624-54.183l-56.424,35.232
			C267.418,1709.291,214.355,1636.291,214.355,1636.291z"/>
		<path style="fill:#9FEEF7;" d="M578.808,1824.487c-7.301-20.618-17.702-51.395-17.702-51.395l-17.17,48.757
			c-52.358-5.957-98.94-20.267-139.408-38.445c9.116-25.302,18.624-54.183,18.624-54.183l-56.424,35.232
			c-99.31-55.162-152.373-128.162-152.373-128.162c310.907-49.113,755.898,55.56,755.898,55.56
			C819.035,1796.196,687.685,1828.707,578.808,1824.487z"/>
		<path style="fill:#CCF6FE;" d="M2237.683,441.494c-47.437-30.668-69.212,56.896-74.158,80.688
			c-20.637,3.001-39.403,7.533-56.185,12.896c16.273-24.686,43.08-32.319,48.779-50.86c6.391-20.79-0.039-46.374-33.463-26.018
			c-26.483,16.129-24.01,61.067-21.84,79.046c-28.903,9.888-51.577,22.007-67.635,32.227c14.85-31.144,44.973-43.582,49.266-65.315
			c4.697-23.78-5.332-50.92-39.985-23.605c-28.644,22.579-18.852,74.909-14.592,92.39c-14.473,9.691-22.358,17.009-23.195,17.8
			c-15.983,14.696-30.634,29.706-44.079,44.854c12.479-27.723,36.237-43.697,37.697-63.854
			c1.752-24.193-11.556-49.347-42.664-16.884c-24.611,25.684-10.857,72.616-4.037,91.11c-27.393,32.289-49.397,65.021-67.101,96.552
			c2.765-28.368,25.073-67.186,19.47-93.768c-3.678-17.438-14.303-21.843-22.633-22.45c-7.118-0.518-14.027,2.694-19.051,8.671
			c-28.396,33.789,7.361,95.477,18.911,113.485c-21.371,39.062-36.145,76.074-46.323,107.843
			c1.316-14.681,3.394-36.834,4.933-48.303c2.423-18.083-2.624-43.604-14.573-54.139c-0.498-0.438-0.997-0.848-1.494-1.228
			c-9.534-7.293-22.541-4.671-30.738,5.052c-32.066,38.033,25.379,98.169,38.139,110.697c-0.065,0.221-0.138,0.449-0.202,0.669
			c-23.868,80.628-23.168,137.835-23.127,140.229l7.772-0.447c-0.01-0.556-0.638-55.019,20.827-130.674
			c73.108-7.645,95.252-54.76,86.137-72.649c-9.42-18.486-37.415-25.741-51.79,8.311c-8.336,19.75-21.063,38.434-30.288,50.655
			c9.94-32.072,24.741-70.048,46.64-110.282c93.923,27.083,105.107-41.155,86.411-57.526c-18.923-16.569-35.098-6.996-51.671,18.616
			c-11.009,17.012-24.21,28.108-31.856,33.664c17.263-30.987,38.774-63.204,65.55-95.029c10.896,15.068,41.256,51.332,72.461,37.217
			c39.002-17.641,25.569-42.706,6.123-51.748c-17.881-8.313-44.015,13.768-74.674,9.928c15.02-17.495,31.625-34.846,50.041-51.778
			c0.293-0.281,16.112-14.967,45.605-30.838c9.217,16.729,35.098,56.779,67.336,47.269c40.491-11.943,29.998-38.843,11.785-50.653
			c-16.252-10.538-43.355,6.312-72.242-0.219c25.287-12.802,59.316-25.699,101.108-31.942c9.679,17.278,35.185,55.589,66.784,46.268
			c40.489-11.944,29.997-38.844,11.783-50.653c-16.48-10.687-44.12,6.81-73.462-0.492l-0.07-0.932
			c10.511-4.84,32.841-15.028,43.728-19.284c14.529-5.68,31.26-22.148,33.761-38.788
			C2248.102,450.633,2237.683,441.494,2237.683,441.494z"/>
		<path style="fill:#CCF6FE;" d="M1650.28,149.064c45.649-1.387,24.095,68.306,17.567,86.836
			c13.023,10.706,24.113,21.687,33.482,32.415c-0.936-23.885-16.293-40.375-12.481-55.587c4.272-17.058,19.421-32.071,34.035-4.011
			c11.579,22.232-8.927,52.292-17.946,63.825c15.863,18.927,26.484,36.792,33.32,50.577c2.751-27.757-12.891-48.959-6.771-65.792
			c6.695-18.418,24.986-33.004,37.54,0.385c10.376,27.599-18.286,59.714-28.544,70.03c5.962,12.756,8.357,21.116,8.605,22.014
			c4.914,16.851,8.773,33.362,11.741,49.466c2.96-24.401-6.799-45.387,0.622-59.945c8.904-17.473,28.633-29.313,36.58,6.156
			c6.289,28.061-22.855,54.784-35.31,64.729c5.45,33.795,6.985,65.645,6.05,94.864c9.951-20.785,10.748-56.972,25.744-73.022
			c9.838-10.528,19.031-9.134,25.049-6.07c5.142,2.617,8.58,7.728,9.556,13.965c5.517,35.252-45.024,62.986-60.548,70.617
			c-1.549,35.964-6.806,67.75-13.051,93.989c5.23-10.709,13.059-26.907,16.79-35.485c5.885-13.525,20.052-29.075,32.726-31.366
			c0.527-0.096,1.045-0.17,1.547-0.226c9.646-1.06,17.551,6.192,19.156,16.347c6.281,39.724-58.617,57.316-72.686,60.649
			c-0.047,0.18-0.092,0.369-0.139,0.548c-17.205,65.769-41.615,105.06-42.646,106.699l-5.19-3.559
			c0.238-0.38,23.45-37.803,40.238-99.127c-47.388-35.856-43.006-77.715-29.216-86.283c14.248-8.853,36.653-2.166,32.358,27.405
			c-2.492,17.15-1.499,35.4-0.227,47.714c6.535-26.348,12.176-58.813,13.852-95.809c-76.317-20.529-55.517-72.424-35.734-75.934
			c20.024-3.553,27.212,9.835,27.969,34.485c0.502,16.375,4.996,29.572,7.963,36.613c1.014-28.659-0.396-59.945-5.613-93.161
			c-13.842,5.87-50.016,18.27-65.703-4.544c-19.609-28.513,0.167-40.241,17.406-38.366c15.848,1.723,24.696,27.929,47.516,38.09
			c-3.076-18.385-7.309-37.334-12.969-56.749c-0.086-0.318-4.891-17.094-18.66-40.406c-13.374,7.721-48.031,24.613-66.361,4.553
			c-23.022-25.193-4.512-39.419,13.029-39.976c15.652-0.496,27.359,22.495,50.078,30.054c-12.142-19.43-30.295-42.582-56.601-64.376
			c-13.923,7.908-47.595,23.753-65.561,4.093c-23.021-25.194-4.511-39.42,13.03-39.976c15.873-0.503,27.68,23.159,51.037,30.375
			l0.438-0.615c-5.248-7.744-16.438-24.129-22.191-31.626c-7.678-10.005-12.367-28.394-7.139-40.954
			C1639.248,151.031,1650.28,149.064,1650.28,149.064z"/>
		<g style="opacity:0.5;">
			<path style="fill:#C4F3FB;" d="M2119.582,929.412l110.84-43.753c12.48-84.697,18.077-156.375,18.077-156.375
				c-136.904,18.082-238.815,69.784-314.698,136.984l-4.47,136.878l-44.614-87.424c-175.313,200.63-171.974,485.338-171.974,485.338
				s372.696-186.483,440.675-255.517c26.246-26.654,46.398-94.785,61.252-168.389
				C2174.328,959.961,2119.582,929.412,2119.582,929.412z"/>
			<path style="fill:#9FEEF7;" d="M2248.499,729.284c0,0-419.917,396.032-535.756,671.776c0,0,372.696-186.483,440.675-255.517
				c26.246-26.654,46.398-94.785,61.252-168.389c-40.342-17.193-95.088-47.743-95.088-47.743l110.84-43.753
				C2242.902,800.961,2248.499,729.284,2248.499,729.284z"/>
			<path style="fill:#C4F3FB;" d="M2357.949,1070.368c-82.385-15.765-158.257-12.313-227.033,3.463
				c-10.271,31.052-23.345,67.94-23.345,67.94l-23.419-55.032c-255.645,82.547-400.945,328.826-400.945,328.826
				c179.904,37.309,313.556,16.168,412.217-30.068c-1.297-21.833-3.688-54.231-3.688-54.231l34.787,38.239
				c45.916-25.854,83.261-57.155,113.469-89.642c-18.241-19.763-38.238-42.673-38.238-42.673l65.688,10.512
				C2337.469,1158.258,2357.949,1070.368,2357.949,1070.368z"/>
			<path style="fill:#9FEEF7;" d="M2095.424,1385.497c-1.297-21.833-3.688-54.231-3.688-54.231l34.787,38.239
				c45.916-25.854,83.261-57.155,113.469-89.642c-18.241-19.763-38.238-42.673-38.238-42.673l65.688,10.512
				c70.027-89.444,90.508-177.334,90.508-177.334c-305.525,75.685-674.742,345.197-674.742,345.197
				C1863.111,1452.874,1996.763,1431.733,2095.424,1385.497z"/>
		</g>
		<path style="fill:#C4DFE8;" d="M248.218,1859.945h2196.268c4.771,0,8.64-3.867,8.64-8.639v-8.278c0-4.771-3.868-8.64-8.64-8.64
			H248.218c-4.772,0-8.64,3.868-8.64,8.64v8.278C239.579,1856.078,243.446,1859.945,248.218,1859.945z"/>
		<g>
			
				<rect x="810.948" y="1190.759" transform="matrix(-1 -1.224647e-16 1.224647e-16 -1 2226.9932 2630.4033)" style="fill:#E03268;" width="605.097" height="248.886"/>
			<path style="fill:#FF5B7E;" d="M1880.897,666.172c-7.542,0.53-606.253,0-606.253,0v568.024h388.107l207.766-207.602
				L1880.897,666.172z"/>
			<path style="fill:#F9537F;" d="M823.085,985.31c0,0,415.223,24.789,415.223,0c0-24.788,0,108.007,0,108.007
				s-203.071,36.396-225.921,36.396c-22.852,0-129.246,56.35-143.345,61.046c-14.1,4.696-44.394-121.115-45.957-122.193
				C821.523,1067.49,823.085,985.31,823.085,985.31z"/>
			<path style="fill:#E03268;" d="M1849.248,1094.883h63.298c12.802,0,23.181-10.378,23.181-23.181v-382.35
				c0-12.802-10.379-23.18-23.181-23.18h-63.298c-12.802,0-23.18,10.378-23.18,23.179v382.351
				C1826.068,1084.505,1836.446,1094.883,1849.248,1094.883z"/>
			<path style="fill:#F9537F;" d="M1430.903,985.31h490.329c44.123,0,79.893,35.744,79.893,79.832v281.455
				c0,112.219-91.042,203.189-203.348,203.189l-504.863,3.091c0,0,35.045-9.328,40.809-19.406
				c23.767-41.549,84.648-148.355,84.648-152.135C1418.372,1376.64,1430.903,985.31,1430.903,985.31z"/>
			<path style="fill:#FF85A5;" d="M887.314,1049.487v274.267c0,54.864,44.511,99.339,99.419,99.339h280.524
				c54.907,0,99.419-44.475,99.419-99.339v-274.267c0-35.442,28.756-64.177,64.228-64.177l0,0c35.473,0,64.229,28.736,64.229,64.177
				v281.337c0,123.174-99.931,223.027-223.202,223.027H982.06c-123.271,0-223.202-99.854-223.202-223.027v-281.337
				c0-35.442,28.756-64.177,64.228-64.177l0,0C858.558,985.31,887.314,1014.046,887.314,1049.487z"/>
			<polygon style="fill:#FFC0BB;" points="879.3,1684.317 869.086,1766.257 814.099,1770.518 814.95,1694.532 			"/>
			<g>
				<path style="fill:#3D3A55;" d="M730.547,1830.495l150.217,1.014c3.284,0.021,5.924-2.561,5.895-5.768l-0.038-4.321
					c-0.028-3.207-2.713-5.823-5.996-5.848l-150.219-1.011c-3.284-0.021-5.922,2.558-5.893,5.766l0.038,4.321
					C724.579,1827.854,727.264,1830.474,730.547,1830.495z"/>
				<path style="fill:#E03268;" d="M878.723,1767.155l5.761,44.354c0.711,5.467-2.377,10.41-6.487,10.382l-142.852-0.965
					c-3.709-0.024-7.397-2.309-9.384-6.576c-2.037-4.373-2.494-10.945,3.822-19.729c12.634-17.574,54.618-21.597,75.038-36.533
					l66.543,0.448C874.881,1758.563,878.081,1762.212,878.723,1767.155z"/>
				<g>
					<path style="fill:#FFFFFF;" d="M814.95,1783.891L814.95,1783.891c1.027-0.615,1.39-2.309,0.781-3.606
						c-2.858-6.092-11.755-20.933-29.568-18.016c-1.028,0.168-1.715,1.499-1.527,2.879l0.006,0.045
						c0.181,1.338,1.116,2.218,2.113,2.057c15.963-2.556,23.531,10.522,25.845,15.627
						C813.094,1783.967,814.097,1784.4,814.95,1783.891z"/>
				</g>
				<g>
					<path style="fill:#FFFFFF;" d="M800.164,1789.495L800.164,1789.495c1.028-0.612,1.39-2.309,0.781-3.607
						c-2.858-6.091-11.755-20.933-29.567-18.015c-1.03,0.167-1.716,1.498-1.529,2.878l0.006,0.046
						c0.183,1.337,1.118,2.217,2.114,2.056c15.963-2.556,23.532,10.522,25.846,15.63
						C798.309,1789.57,799.31,1790.004,800.164,1789.495z"/>
				</g>
				<g>
					<path style="fill:#FFFFFF;" d="M786.413,1794.724L786.413,1794.724c1.027-0.614,1.389-2.309,0.78-3.606
						c-2.857-6.091-11.754-20.933-29.567-18.015c-1.028,0.167-1.715,1.498-1.527,2.878l0.006,0.046
						c0.181,1.337,1.117,2.217,2.114,2.056c15.963-2.556,23.532,10.522,25.845,15.627
						C784.557,1794.8,785.559,1795.233,786.413,1794.724z"/>
				</g>
				<path style="opacity:0.3;fill:#E87B50;" d="M839.871,1821.632c10.937-35.722,30.304-39.547,40.908-38.649l3.704,28.525
					c0.711,5.467-2.376,10.41-6.486,10.382L839.871,1821.632z"/>
			</g>
			<polygon style="fill:#FFC0BB;" points="984.021,1686.063 959.714,1765.133 903.753,1765.517 913.5,1707.796 			"/>
			<path style="fill:#07085B;" d="M1479.834,486.842c0,0,16.713-84.278-32.133-113.921c-48.846-29.643-99.176-24.401-132.817-4.447
				c-33.642,19.955-51.659,86.063-34.784,122.891l112.702-39.657L1479.834,486.842z"/>
			<g>
				<path style="fill:#3D3A55;" d="M823.374,1831.96l150.219,1.014c3.283,0.021,5.922-2.562,5.894-5.768l-0.038-4.322
					c-0.028-3.207-2.712-5.823-5.997-5.845l-150.218-1.014c-3.283-0.021-5.922,2.561-5.894,5.769l0.039,4.321
					C817.405,1829.322,820.09,1831.938,823.374,1831.96z"/>
				<path style="fill:#F9537F;" d="M971.551,1768.623l5.761,44.351c0.71,5.47-2.377,10.409-6.487,10.382l-142.852-0.962
					c-3.711-0.024-7.399-2.311-9.385-6.578c-2.037-4.374-2.495-10.943,3.823-19.729c12.633-17.574,54.617-21.597,75.038-36.533
					l66.542,0.451C967.708,1760.028,970.908,1763.677,971.551,1768.623z"/>
				<g>
					<path style="fill:#FFFFFF;" d="M907.777,1785.355L907.777,1785.355c1.027-0.612,1.39-2.309,0.78-3.605
						c-2.857-6.092-11.755-20.933-29.566-18.015c-1.029,0.167-1.716,1.498-1.528,2.881l0.006,0.043
						c0.182,1.337,1.118,2.217,2.114,2.056c15.963-2.556,23.532,10.526,25.846,15.63
						C905.922,1785.432,906.923,1785.864,907.777,1785.355z"/>
				</g>
				<g>
					<path style="fill:#FFFFFF;" d="M892.992,1790.96L892.992,1790.96c1.027-0.612,1.39-2.309,0.781-3.606
						c-2.858-6.088-11.756-20.933-29.568-18.015c-1.028,0.167-1.715,1.498-1.527,2.881l0.006,0.043
						c0.181,1.337,1.117,2.217,2.113,2.059c15.963-2.558,23.532,10.522,25.845,15.627
						C891.135,1791.036,892.138,1791.469,892.992,1790.96z"/>
				</g>
				<g>
					<path style="fill:#FFFFFF;" d="M879.24,1796.189L879.24,1796.189c1.027-0.612,1.389-2.309,0.78-3.606
						c-2.857-6.091-11.755-20.933-29.567-18.015c-1.028,0.167-1.716,1.498-1.528,2.881l0.006,0.043
						c0.181,1.337,1.118,2.217,2.114,2.059c15.962-2.559,23.532,10.522,25.845,15.627
						C877.385,1796.266,878.387,1796.697,879.24,1796.189z"/>
				</g>
				<path style="opacity:0.3;fill:#E87B50;" d="M932.697,1823.097c10.938-35.722,30.305-39.547,40.909-38.648l3.705,28.526
					c0.71,5.47-2.377,10.409-6.487,10.382L932.697,1823.097z"/>
			</g>
			<polygon style="fill:#FFC0BB;" points="1428.195,563.537 1436.361,657.65 1350.922,653.682 1360.773,570.341 			"/>
			<path style="fill:#F99893;" d="M1356.089,609.974l4.685-39.633l67.422-6.804l2.828,32.591
				C1417.618,609.112,1393.512,622.57,1356.089,609.974z"/>
			<path style="fill:#F99893;" d="M1303.701,500.124c5.138,10.328,2.412,21.938-6.088,25.934c-8.5,3.996-19.555-1.139-24.691-11.467
				c-5.138-10.328-2.412-21.937,6.088-25.933C1287.509,484.662,1298.564,489.797,1303.701,500.124z"/>
			<path style="fill:#FFC0BB;" d="M1310.877,561.951c-3.014-4.404-5.626-9.113-7.794-14.077
				c-6.112-13.315-9.693-27.633-11.779-40.184c-0.448-2.692-1.055-5.354-1.712-8.007c-2.659-10.708-3.367-22.193-1.52-34.163
				c5.939-38.509,37.81-69.212,77.493-74.542c53.46-7.185,100.552,31.29,103.879,82.247c5.498-3.43,11.853-4.535,17.647-2.437
				c11.118,4.029,15.932,18.246,10.753,31.756c-5.182,13.507-18.393,21.194-29.512,17.165c-1.543-0.561-2.951-1.331-4.242-2.254
				c-1.717,43.638-36.083,79.36-79.965,81.357c-21.461,0.978-41.424-6.292-56.925-19.029c-1.028-0.737-2.115-1.605-3.264-2.619
				C1318.897,572.705,1314.591,567.533,1310.877,561.951z"/>
			<path style="fill:#333333;" d="M1388.139,485.953c0.205,4.273,3.937,7.574,8.333,7.376c4.396-0.201,7.793-3.829,7.587-8.102
				c-0.205-4.273-3.937-7.574-8.333-7.373C1391.329,478.053,1387.933,481.68,1388.139,485.953z"/>
			<path style="fill:#333333;" d="M1319.989,493.424c0.206,4.273,3.937,7.575,8.333,7.373c4.397-0.201,7.793-3.825,7.588-8.098
				c-0.207-4.276-3.938-7.578-8.333-7.376C1323.181,485.523,1319.784,489.148,1319.989,493.424z"/>
			<path style="fill:#07085B;" d="M1378.134,468.462c4.058-1.221,7.876-2.15,11.654-2.72c3.771-0.563,7.466-0.664,11.067-0.237
				c3.58,0.469,7.183,1.215,10.646,2.744c1.839,0.558,3.442,1.617,5.301,2.37c1.794,0.868,3.456,1.974,5.465,2.83
				c-1.003-1.797-2.174-3.554-3.538-5.169c-1.502-1.459-2.941-3.106-4.819-4.218c-3.504-2.589-7.908-4.075-12.349-4.614
				c-4.471-0.524-9.039,0.113-13.095,1.69C1384.433,462.749,1380.739,465.142,1378.134,468.462z"/>
			<path style="fill:#3D3A55;" d="M886.345,1576.301h939.573c3.327,0,6.025-2.697,6.025-6.024v-16.431
				c0-3.329-2.699-6.027-6.027-6.027H886.343c-3.328,0-6.025,2.697-6.025,6.025v16.43
				C880.317,1573.603,883.016,1576.301,886.345,1576.301z"/>
			<path style="fill:#07085B;" d="M1343.03,472.302c-3.218-2.762-7.319-4.416-11.598-5.232c-4.294-0.786-8.902-0.545-13.183,0.81
				c-4.249,1.367-8.274,3.658-11.191,6.862c-1.62,1.443-2.703,3.332-3.886,5.046c-1.017,1.84-1.813,3.783-2.438,5.735
				c1.798-1.218,3.209-2.613,4.794-3.804c1.673-1.09,3.035-2.434,4.727-3.326c3.091-2.156,6.476-3.566,9.894-4.703
				c3.449-1.097,7.093-1.7,10.906-1.855C1334.877,471.681,1338.807,471.873,1343.03,472.302z"/>
			<path style="fill:#07085B;" d="M1468.174,474.477c5.061-4.605,9.091-4.428,9.091-4.428l-3.457-26.926l-9.288-15.95
				c0,0-35.593-42.514-36.828-43.555c-1.234-1.042-27.623-14.223-29.242-14.89c-1.618-0.667-37.576,6.009-37.576,6.009
				s-64.121-10.221-52.089,21.707c12.033,31.927,59.166,47.119,61.493,45.59c-7.835-6.96-9.436-27.518-9.436-27.518
				C1395.123,447.938,1458.334,471.017,1468.174,474.477z"/>
			<path style="fill:#F99893;" d="M1359.961,485.314c-2.326,3.652-4.313,7.477-6.111,11.388c-1.806,3.91-3.381,7.924-4.613,12.097
				c-0.569,2.102-1.084,4.23-1.238,6.527c-0.019,0.582-0.014,1.175,0.061,1.797c0.034,0.311,0.125,0.648,0.193,0.968
				c0.142,0.35,0.229,0.689,0.486,1.042c0.13,0.177,0.269,0.351,0.41,0.512l0.346,0.292c0.23,0.185,0.451,0.39,0.689,0.557
				c0.482,0.323,0.957,0.664,1.455,0.938c1.961,1.169,4.035,2.001,6.131,2.717c2.106,0.688,4.237,1.276,6.42,1.638
				c-3.969-1.836-7.971-3.658-11.375-6.055c-0.432-0.292-0.807-0.628-1.199-0.944l-0.54-0.5l-0.263-0.247
				c-0.018-0.052-0.04-0.097-0.07-0.134c-0.265-0.417-0.297-1.489-0.193-2.418c0.203-1.952,0.698-3.993,1.289-5.991
				c1.136-4.032,2.578-8.031,3.965-12.051C1357.218,493.433,1358.654,489.413,1359.961,485.314z"/>
			<path style="fill:#050849;" d="M1341.943,634.458c0,0-66.903,2.823-101.877,45.383
				c-34.973,42.557-134.165,460.053-134.165,460.053l111.555-11.917c0,0,145.061-198.322,145.061-203.427
				C1362.518,919.442,1341.943,634.458,1341.943,634.458z"/>
			<path style="fill:#FFC0BB;" d="M1473.424,635.115c0,0-128.063-0.253-130.043-0.125c-1.979,0.125-11.803-0.917-15.42,2.869
				c-3.616,3.786-9.857,24.639,7.957,34.851c17.814,10.215-20.05,10.642,28.271,19.151c48.32,8.513,33.838,20.004,70.467,5.107
				c36.629-14.896,41.348-8.512,42.608-21.703C1478.525,662.072,1473.424,635.115,1473.424,635.115z"/>
			<path style="fill:#07085B;" d="M1218.894,824.645c7.429-66.998,25.402-111.933,45.551-142.039
				c15.063-22.504,37.875-38.144,63.516-44.747c0.116,0.442,6.489,24.247,39.401,28.044c33.222,3.829,104.788-30.867,106.062-30.788
				l0.003-0.003c36.971,2.299,68.941,9.244,85.597,28.662c33.22,38.728,143.107,309.173,140.552,347.375
				c-2.556,38.201-31.947,38.201-31.947,38.201l-300.952,0.137v69.218l-218.307,14.912
				C1154.457,1129.588,1197.848,1014.454,1218.894,824.645z"/>
			<g>
				<path style="fill:#DAEEF7;" d="M1194.714,798.352c-1.92,0.07-79.464-46.89-79.464-46.89l-14.491,3.079l5.142,3.792l-8.667-2.174
					l-14.099,2.174c0,0,46.605,54.961,47.388,56.527c0.783,1.563,21.148,9.39,22.715,10.172S1194.714,798.352,1194.714,798.352z"/>
				<path style="fill:#DAEEF7;" d="M1318.802,760.854l-7.049-4.401l-3.23,2.199v-4.111l-4.407-3.079l-112.791,44.612
					c0,0,36.128,22.893,37.303,22.014c1.175-0.883,65.501-12.621,66.675-14.381C1296.479,801.942,1318.802,760.854,1318.802,760.854
					z"/>
				<path style="fill:#FEB546;" d="M1317.019,758.771l-127.837,41.372L1086.09,755.29c-6.257-2.723-13.118,2.336-12.361,9.112
					l19.636,175.583c0.327,2.917,2.08,5.488,4.681,6.855l98.983,52.141l89.656-33.167l2.307-3.39l11.624-1.764l37.592-13.906
					c3.358-1.243,5.474-4.575,5.168-8.141l-14.783-172.169C1328.105,760.763,1322.45,757.01,1317.019,758.771z"/>
				<path style="fill:#F4A640;" d="M1317.019,758.768c5.432-1.757,11.087,1.995,11.575,7.678l14.764,171.94
					c0.318,3.701-1.877,7.16-5.363,8.449l-37.377,13.827l-11.623,1.764l-2.309,3.39l-60.304,22.309
					c-13.872-2.671-27.639-5.251-27.639-5.251l-9.561-182.731L1317.019,758.768z"/>
				<polygon style="fill:#F4A640;" points="1170.1,821.127 1090.381,786.291 1092.926,822.488 1171.058,858.686 				"/>
			</g>
			<path style="fill:#2B1C35;" d="M1127.042,1119.147c0,0-269.927-8.513-331.258,49.366s-1.704,485.28,8.518,525.227
				c0,0,37.481,34.839,81.776,21.219c44.296-13.617,27.258-204.279,27.258-204.279s-5.111-182.149,1.704-207.684
				c6.815-25.534,100.516-44.259,100.516-44.259s144.811-100.438,136.293-100.438
				C1143.331,1158.299,1127.042,1119.147,1127.042,1119.147z"/>
			<path style="fill:#3A2645;" d="M1366.676,1110.964c0,0-361.341-42.889-410.748,120.536
				c-49.406,163.422-86.886,486.864-86.886,486.864s47.703,28.94,112.441,0c0,0,91.568-347.274,125.856-381.321
				c34.289-34.047,259.337-13.288,259.337-13.288V1110.964z"/>
			<path style="fill:#FFFFFF;" d="M1273.8,1007.053c1.378-7.803,3.329-15.478,5.54-23.062c2.248-7.583,4.732-15.061,7.718-22.437
				l0.334-0.829l0.905-0.046l241.105-12.07c-0.901-7.309-3.131-14.488-5.56-21.52c-2.563-7.297-5.485-14.473-8.542-21.591
				c-6.154-14.22-12.905-28.184-19.887-42.029c-14.02-27.667-28.936-54.885-44.466-81.742l0.247-0.146
				c15.72,26.756,30.825,53.877,45.047,81.464c7.082,13.809,13.938,27.743,20.205,41.957c3.113,7.114,6.095,14.293,8.726,21.615
				c2.581,7.331,4.978,14.792,5.885,22.65l0.091,0.789l-0.816,0.046l-240.949,13.37c-2.77,6.947-5.171,14.12-7.302,21.322
				c-2.184,7.501-4.108,15.088-5.462,22.769c-1.319,7.675-2.433,15.423-2.457,23.184c-0.088,7.413,0.489,14.854,2.447,21.949
				l71.361-2.073l36.212-1.012l36.227-0.609l0.013,0.348l-36.197,1.435l-36.194,1.541l-72.39,3.003l-0.994,0.04l-0.292-0.947
				c-2.375-7.725-3.103-15.768-3.067-23.72C1271.319,1022.726,1272.456,1014.85,1273.8,1007.053z"/>
			<path style="fill:#ED9935;" d="M1197.493,797.639l9.243,192.535l-14.109-2.05l-9.936-190.485
				C1182.691,797.639,1190.15,792.456,1197.493,797.639z"/>
			<g>
				<path style="fill:#FFC0BB;" d="M1187.2,979.767c17.888,7.873,54.187,2.16,54.187,2.16l27.481-9.554
					c3.844,2.613,7.755,5.269,11.625,7.849c-0.388,1.255-0.781,2.509-1.153,3.77c-2.211,7.584-4.162,15.259-5.54,23.062
					c-1.344,7.797-2.481,15.673-2.512,23.649c-0.006,1.304,0.046,2.607,0.085,3.914l-3.869-1.441
					c-4.675,0.943-13.142,0.137-24.874-1.666c-13.393-1.709-34.563-4.66-43.815-7.322c-6.668-1.919-9.566-6.174-10.791-10.117
					c-5.273-3.213-5.767-9.201-5.13-13.967c-0.15-0.305-0.281-0.609-0.38-0.917c-2.572-8.034-1.139-10.121,0.177-10.937
					c-0.939-0.968-1.595-2.019-1.88-3.161C1177.83,973.17,1187.2,979.767,1187.2,979.767z"/>
				<path style="fill:#F99893;" d="M1182.691,999.469c2.151,2.509,4.935,4.417,7.832,6.018c2.91,1.608,6.052,2.76,9.251,3.648
					c3.223,0.802,6.51,1.35,9.818,1.489c1.649,0.119,3.307,0.027,4.952,0.046c1.646-0.125,3.289-0.271,4.917-0.469
					c-3.29-0.158-6.546-0.268-9.775-0.676c-3.226-0.397-6.416-0.969-9.546-1.776c-3.124-0.834-6.175-1.912-9.124-3.243
					C1188.088,1003.143,1185.242,1001.537,1182.691,999.469z"/>
				<path style="fill:#F99893;" d="M1187.984,1014.101c2.343,2.333,5.268,4.017,8.282,5.385c3.028,1.373,6.251,2.271,9.51,2.908
					c3.276,0.546,6.596,0.832,9.906,0.71c1.653-0.013,3.299-0.232,4.94-0.345c1.632-0.252,3.257-0.526,4.865-0.852
					c-3.292,0.098-6.548,0.247-9.798,0.095c-3.248-0.141-6.473-0.46-9.657-1.02c-3.179-0.585-6.307-1.416-9.351-2.516
					C1193.654,1017.338,1190.69,1015.962,1187.984,1014.101z"/>
				<path style="fill:#F99893;" d="M1182.691,988.249c2.151,2.51,4.935,4.419,7.832,6.018c2.91,1.608,6.052,2.759,9.251,3.648
					c3.223,0.801,6.51,1.349,9.818,1.489c1.649,0.119,3.307,0.027,4.952,0.046c1.646-0.125,3.289-0.268,4.917-0.469
					c-3.29-0.158-6.546-0.268-9.775-0.676c-3.226-0.396-6.416-0.968-9.546-1.775c-3.124-0.834-6.175-1.91-9.124-3.244
					C1188.088,991.922,1185.242,990.317,1182.691,988.249z"/>
			</g>
			<path style="fill:#F99893;" d="M1392.273,541.526c-7.5,0.88-14.801,2.15-22.141,3.183c-7.345,1.066-14.607,1.943-22.145,2.242
				c7.352,1.977,15.119,1.611,22.556,0.6C1377.996,546.412,1385.354,544.59,1392.273,541.526z"/>
			<g>
				<polygon style="fill:#3D3A55;" points="1812.664,1832.429 1839.943,1832.429 1771.908,1565.297 1746.289,1571.816 				"/>
			</g>
			<g>
				<g>
					<g>
						<polygon style="fill:#3D3A55;" points="1312.463,1832.429 1339.743,1832.429 1271.707,1565.297 1246.087,1571.816 						"/>
					</g>
				</g>
			</g>
			<g>
				<polygon style="fill:#3D3A55;" points="1480.377,1832.429 1453.099,1832.429 1521.133,1565.297 1546.753,1571.816 				"/>
			</g>
		</g>
		
			<rect x="2145.311" y="1510.975" transform="matrix(-1 -1.224647e-16 1.224647e-16 -1 4313.1426 3343.9495)" style="fill:#FEB546;" width="22.521" height="322"/>
		
			<rect x="2020.578" y="1510.975" transform="matrix(-1 -1.224647e-16 1.224647e-16 -1 4063.6777 3343.9495)" style="fill:#DB962C;" width="22.521" height="322"/>
		<rect x="1683.197" y="1510.975" style="fill:#FEB546;" width="22.521" height="322"/>
		<rect x="1807.929" y="1510.975" style="fill:#DB962C;" width="22.521" height="322"/>
		
			<rect x="1647.786" y="1489.626" transform="matrix(-1 -1.224647e-16 1.224647e-16 -1 3851.2588 3048.6807)" style="fill:#FEB546;" width="555.687" height="69.429"/>
		
			<rect x="1626.029" y="1467.974" transform="matrix(-1 -1.224647e-16 1.224647e-16 -1 3851.2598 2962.7317)" style="fill:#DB962C;" width="599.201" height="26.784"/>
		<g>
			<g>
				<path style="fill:#2A2C8C;" d="M2047.508,1269.708h9.697c-1.586-0.926-3.57-1.479-5.73-1.479H1808.52
					c-12.711,0-23.016,7.793-23.016,17.406v11.057c0,9.613,10.305,17.407,23.016,17.407l240.238-0.062L2047.508,1269.708z"/>
				<path style="fill:#07085B;" d="M1909.576,1268.27c-12.156,0-22.01,7.453-22.01,16.646v12.495c0,9.193,9.854,16.646,22.01,16.646
					h151.246v-2.795h-0.625l-38.45-2.754l-7.771-23.059c0,0,15-12.741,15.978-13.07c0.979-0.329,30.244-1.325,30.244-1.325
					l0.625-0.006v-2.779H1909.576z"/>
				<path style="fill:#DAEEF7;" d="M2051.013,1291.081c0-13.481,9.212-20.017,9.212-20.017h-147.551
					c-11.165,0-20.217,6.846-20.217,15.29v9.618c0,8.444,9.052,15.29,20.217,15.29h147.551
					C2060.225,1311.263,2051.013,1308.057,2051.013,1291.081z"/>
				<path style="fill:#DAEEF7;" d="M1892.457,1286.354v9.618c0,1.264,0.207,2.491,0.59,3.667c4.977-9.209,14.514-18.078,32.67-20.93
					c42.391-6.659,134.508-7.646,134.508-7.646h-147.551C1901.509,1271.064,1892.457,1277.91,1892.457,1286.354z"/>
			</g>
			<g>
				<path style="fill:#07085B;" d="M2043.508,1361.392h10.977c-1.797-1.159-4.043-1.853-6.487-1.853H1773.02
					c-14.387,0-26.049,9.756-26.049,21.788v13.84c0,12.033,11.662,21.788,26.049,21.788l271.902-0.077L2043.508,1361.392z"/>
				<path style="fill:#55769F;" d="M1887.396,1359.591c-13.758,0-24.911,9.329-24.911,20.836v15.641
					c0,11.507,11.153,20.836,24.911,20.836h171.183v-3.498h-0.709l-43.518-3.447l-8.796-28.862c0,0,16.978-15.948,18.084-16.36
					c1.107-0.411,34.229-1.659,34.229-1.659l0.709-0.006v-3.479H1887.396z"/>
				<path style="fill:#DAEEF7;" d="M2047.475,1388.145c0-16.875,10.426-25.056,10.426-25.056h-166.998
					c-12.637,0-22.882,8.569-22.882,19.139v12.039c0,10.569,10.245,19.139,22.882,19.139H2057.9
					C2057.9,1413.405,2047.475,1409.393,2047.475,1388.145z"/>
				<path style="fill:#DAEEF7;" d="M1868.021,1382.228v12.039c0,1.583,0.234,3.119,0.667,4.59
					c5.633-11.526,16.428-22.628,36.976-26.198c47.978-8.334,152.236-9.569,152.236-9.569h-166.998
					C1878.266,1363.089,1868.021,1371.658,1868.021,1382.228z"/>
			</g>
			<g>
				<path style="fill:#02CCC0;" d="M1751.669,1315.451h-10.98c1.796-0.92,4.044-1.47,6.489-1.47h275.085
					c14.392,0,26.06,7.74,26.06,17.288v10.981c0,9.548-11.668,17.288-26.06,17.288l-272.009-0.06L1751.669,1315.451z"/>
				<path style="fill:#06BFAD;" d="M1907.842,1314.022c13.764,0,24.921,7.401,24.921,16.533v12.41
					c0,9.131-11.157,16.533-24.921,16.533h-171.248v-2.776h0.707l43.535-2.735l8.799-22.901c0,0-16.982-12.655-18.09-12.982
					c-1.107-0.326-34.244-1.316-34.244-1.316l-0.707-0.005v-2.761H1907.842z"/>
				<path style="fill:#DAEEF7;" d="M1747.7,1336.679c0-13.39-10.43-19.881-10.43-19.881h167.063
					c12.642,0,22.891,6.799,22.891,15.187v9.553c0,8.387-10.249,15.185-22.891,15.185h-167.063
					C1737.271,1356.723,1747.7,1353.538,1747.7,1336.679z"/>
				<path style="fill:#DAEEF7;" d="M1927.225,1331.984v9.553c0,1.256-0.234,2.475-0.668,3.642
					c-5.635-9.146-16.434-17.955-36.99-20.788c-47.997-6.612-152.296-7.593-152.296-7.593h167.063
					C1916.976,1316.798,1927.225,1323.597,1927.225,1331.984z"/>
				<path style="opacity:0.5;fill:#55769F;" d="M1997.928,1342.251v-10.981c0-9.548-11.667-17.288-26.059-17.288h26.121
					c14.393,0,26.061,7.74,26.061,17.288v10.981c0,9.548-11.668,17.289-26.061,17.289l-25.776-0.007
					C1986.446,1359.41,1997.928,1351.722,1997.928,1342.251z"/>
			</g>
			<path style="fill:#02CCC0;" d="M1748.953,1418.714h-11.838c1.938-1.027,4.36-1.642,6.996-1.642h296.548
				c15.515,0,28.093,8.649,28.093,19.316v12.269c0,10.668-12.578,19.316-28.093,19.316l-293.231-0.068L1748.953,1418.714z"/>
			<path style="fill:#06B8A6;" d="M1917.311,1417.117c14.838,0,26.865,8.271,26.865,18.473v13.866
				c0,10.202-12.027,18.472-26.865,18.472h-184.609v-3.101h0.764l46.931-3.057l9.486-25.588c0,0-18.309-14.139-19.503-14.504
				c-1.193-0.364-36.914-1.471-36.914-1.471l-0.764-0.006v-3.085H1917.311z"/>
			<path style="fill:#DAEEF7;" d="M1744.675,1442.432c0-14.96-11.243-22.213-11.243-22.213h180.098
				c13.628,0,24.676,7.597,24.676,16.968v10.673c0,9.371-11.048,16.968-24.676,16.968h-180.098
				C1733.432,1464.827,1744.675,1461.27,1744.675,1442.432z"/>
			<path style="fill:#DAEEF7;" d="M1938.205,1437.187v10.673c0,1.403-0.252,2.766-0.719,4.069
				c-6.074-10.219-17.716-20.062-39.877-23.226c-51.741-7.389-164.178-8.484-164.178-8.484h180.098
				C1927.157,1420.219,1938.205,1427.816,1938.205,1437.187z"/>
		</g>
	</g>
</g>
</svg>
